<?xml version="1.0" encoding="UTF-8"?>
<svg version="1.1" xmlns="http://www.w3.org/2000/svg" width="500" height="500">
<path d="M0 0 C8.42917252 -2.36935854 17.78567313 -3.70359009 26 0 C38.76658197 8.45650416 49.08508202 21.47568694 59 33 C60.12120157 32.0449028 61.24156401 31.08882049 62.36157227 30.13232422 C62.98556412 29.6000119 63.60955597 29.06769958 64.25245667 28.51925659 C66.23224136 26.79809702 68.10154154 24.998427 69.9375 23.125 C70.52402344 22.52945312 71.11054688 21.93390625 71.71484375 21.3203125 C72.13894531 20.88460938 72.56304687 20.44890625 73 20 C71.60861439 16.84876764 69.98645061 14.75917966 67.5234375 12.36328125 C66.853125 11.70392578 66.1828125 11.04457031 65.4921875 10.36523438 C64.79351562 9.68783203 64.09484375 9.01042969 63.375 8.3125 C61.98485511 6.95660138 60.59671464 5.59864356 59.2109375 4.23828125 C58.28740479 3.341698 58.28740479 3.341698 57.34521484 2.42700195 C56 1 56 1 56 0 C65.62478905 -1.67024539 76.39062846 -3.14208119 85.22180176 1.8046875 C92.31879639 7.20607585 98.27229345 13.75483376 104.18200684 20.39672852 C106.61377405 23.09860065 109.12462223 25.72490565 111.62890625 28.359375 C116.49721981 33.50331597 121.27578969 38.72309092 126 44 C124.71403737 46.82384367 123.37292429 48.87568428 121.177948 51.06256104 C120.60303619 51.64022217 120.02812439 52.2178833 119.43579102 52.81304932 C118.80713135 53.43451843 118.17847168 54.05598755 117.53076172 54.69628906 C116.86722687 55.36011597 116.20369202 56.02394287 115.52005005 56.70788574 C113.3279703 58.89857333 111.12889375 61.08209364 108.9296875 63.265625 C107.40753361 64.78404837 105.88582098 66.30291421 104.36453247 67.82220459 C100.36090745 71.8181963 96.35131241 75.80814529 92.3404541 79.796875 C88.24809371 83.86877055 84.16139471 87.94633926 80.07421875 92.0234375 C72.05501695 100.02119471 64.02949819 108.01258103 56 116 C53.07742561 114.67958555 51.00741791 113.25571935 48.74761963 110.98812866 C48.12788773 110.37114609 47.50815582 109.75416351 46.86964417 109.1184845 C46.20142136 108.44307114 45.53319855 107.76765778 44.84472656 107.07177734 C44.13213181 106.35947464 43.41953705 105.64717194 42.68534851 104.9132843 C40.33233549 102.5588785 37.9864849 100.19746875 35.640625 97.8359375 C34.01010025 96.20168245 32.37913324 94.56786854 30.7477417 92.93447876 C26.45583324 88.63493527 22.16996486 84.32941935 17.88531494 80.02264404 C13.51180178 75.62866977 9.13261921 71.24035397 4.75390625 66.8515625 C-3.83629625 58.23991236 -12.4201302 49.62194389 -21 41 C-19.21799313 37.14972009 -16.92324595 34.7200858 -13.875 31.75 C-12.96492187 30.85796875 -12.05484375 29.9659375 -11.1171875 29.046875 C-10.41851562 28.37140625 -9.71984375 27.6959375 -9 27 C-4.46479694 30.79698509 -0.13986003 34.71711354 4.02709961 38.91357422 C4.58407532 39.4704039 5.14105103 40.02723358 5.71490479 40.60093689 C7.52976899 42.41649 9.34107911 44.23554394 11.15234375 46.0546875 C12.42007374 47.32428531 13.68802673 48.59366048 14.95619202 49.86282349 C18.27424776 53.18467574 21.58928789 56.50952133 24.90368652 59.83502197 C28.29398355 63.23559509 31.68715506 66.63329737 35.08007812 70.03125 C41.72285162 76.68471019 48.36243946 83.34133959 55 90 C60.63568661 85.31179066 65.83103966 80.30014592 70.99609375 75.1015625 C71.82963882 74.26660248 72.6631839 73.43164246 73.52198792 72.57138062 C76.16286524 69.92494152 78.80022896 67.27503241 81.4375 64.625 C83.23609649 62.82138357 85.03492227 61.01799575 86.83398438 59.21484375 C91.22531248 54.81253739 95.61376729 50.40738286 100 46 C99.0402279 44.87434093 98.0796177 43.74939642 97.11865234 42.62475586 C96.58380219 41.99822617 96.04895203 41.37169647 95.49789429 40.72618103 C93.93952782 38.93031155 92.32639025 37.22338095 90.625 35.5625 C89.75875 34.716875 88.8925 33.87125 88 33 C84.87675456 34.38629244 82.75809293 35.99511571 80.35546875 38.4140625 C79.33936523 39.43306641 79.33936523 39.43306641 78.30273438 40.47265625 C77.60470703 41.18292969 76.90667969 41.89320313 76.1875 42.625 C75.50107422 43.31207031 74.81464844 43.99914062 74.10742188 44.70703125 C69.54308555 49.31023137 65.21015916 54.07147675 61 59 C56.6242252 58.55600786 54.23801078 55.6464198 51.31347656 52.66992188 C50.75693893 52.11542862 50.20040131 51.56093536 49.6269989 50.98963928 C47.790868 49.15651462 45.96569904 47.31287804 44.140625 45.46875 C42.86897103 44.19403873 41.59672574 42.9199171 40.32391357 41.6463623 C37.65974912 38.97759615 35.00057139 36.30399438 32.34521484 33.62646484 C28.93314929 30.1860597 25.5124122 26.75444487 22.08838272 23.32595062 C19.46288293 20.69630491 16.8402271 18.06383948 14.2186203 15.43031311 C12.95752988 14.16350737 11.69595787 12.89718086 10.43390656 11.6313324 C8.6762674 9.86685745 6.92206754 8.09903954 5.16894531 6.33007812 C4.6422374 5.80225235 4.11552948 5.27442657 3.57286072 4.73060608 C0 1.11468833 0 1.11468833 0 0 Z " fill="#010101" transform="translate(194,262)"/>
<path d="M0 0 C2.94209835 1.32710259 5.01614431 2.76789991 7.29034424 5.04983521 C7.9184903 5.67523193 8.54663635 6.30062866 9.19381714 6.94497681 C10.21017746 7.97212296 10.21017746 7.97212296 11.24707031 9.02001953 C11.96941864 9.74207581 12.69176697 10.46413208 13.43600464 11.20806885 C15.82148279 13.59493989 18.19979939 15.9888162 20.578125 18.3828125 C22.23107002 20.03948779 23.88445727 21.69572195 25.53826904 23.35153198 C29.88936088 27.71025917 34.23441313 32.07495924 38.57824707 36.44091797 C43.01208371 40.89521505 47.45158909 45.34385418 51.890625 49.79296875 C60.5993166 58.52310855 69.30164008 67.25956694 78 76 C77.0402279 77.12565907 76.0796177 78.25060358 75.11865234 79.37524414 C74.58380219 80.00177383 74.04895203 80.62830353 73.49789429 81.27381897 C71.13334916 83.99873286 68.58039756 86.48104048 66 89 C61.86374991 87.36934355 59.10043401 84.36776548 56.03808594 81.26513672 C55.15938843 80.38687729 55.15938843 80.38687729 54.26293945 79.49087524 C52.33197161 77.55851644 50.40818053 75.61917484 48.484375 73.6796875 C47.14531389 72.33689544 45.80580991 70.99454487 44.46588135 69.65261841 C40.94335571 66.12246283 37.42687797 62.58634194 33.91162109 59.0489502 C30.32231449 55.43917149 26.72732744 51.83505985 23.1328125 48.23046875 C16.08296682 41.15918442 9.03949663 34.08158587 2 27 C-1.40353022 28.47122616 -3.61255749 30.36942513 -6.21777344 32.99072266 C-7.4485965 34.22177231 -7.4485965 34.22177231 -8.70428467 35.47769165 C-9.58046448 36.36419403 -10.45664429 37.25069641 -11.359375 38.1640625 C-12.71594208 39.52487442 -12.71594208 39.52487442 -14.09991455 40.91317749 C-16.49796458 43.31884419 -18.88994618 45.73045736 -21.28070068 48.14337158 C-23.72385171 50.60702344 -26.17271206 53.06498577 -28.62109375 55.5234375 C-33.41933788 60.34373573 -38.21182732 65.16969843 -43 70 C-42.15356901 71.04796218 -41.29723808 72.08792692 -40.4375 73.125 C-39.96183594 73.70507812 -39.48617187 74.28515625 -38.99609375 74.8828125 C-36.22540048 77.82159088 -33.06660344 80.37148276 -30 83 C-21.42 74.42 -12.84 65.84 -4 57 C-0.00197483 58.99901258 2.09876827 60.85097503 5.22753906 63.98461914 C5.73530884 64.49049057 6.24307861 64.996362 6.76623535 65.51756287 C8.43761968 67.18525238 10.10171212 68.86001474 11.765625 70.53515625 C12.92539607 71.69611958 14.08553721 72.85671333 15.24603271 74.01695251 C17.67331919 76.44580143 20.09721292 78.87796911 22.51855469 81.31274414 C25.62966205 84.44088833 28.74735935 87.56236167 31.86737442 90.68161869 C34.26104814 93.07556358 36.65211254 95.47209995 39.04228973 97.86953545 C40.19160334 99.02204059 41.34153189 100.17393281 42.49207306 101.32521248 C44.09393442 102.9292296 45.69246665 104.53648803 47.29003906 106.14477539 C48.20174866 107.06029678 49.11345825 107.97581818 50.05279541 108.91908264 C52 111 52 111 52 112 C43.04109884 114.04942183 32.22184952 115.88698053 24.01672363 110.76098633 C14.12735773 103.28515063 5.93632912 93.45391186 -2 84 C-5.85027991 85.78200687 -8.2799142 88.07675405 -11.25 91.125 C-12.14203125 92.03507812 -13.0340625 92.94515625 -13.953125 93.8828125 C-14.62859375 94.58148438 -15.3040625 95.28015625 -16 96 C-14.42306589 99.89702108 -11.88838498 102.2489773 -8.875 105.125 C-7.21276567 106.71189226 -5.57775654 108.32909178 -4 110 C-4 110.66 -4 111.32 -4 112 C-13.46688911 113.47029922 -24.32006439 115.04756016 -33.05773926 110.359375 C-40.10806301 105.11871623 -45.82916985 98.55343345 -51.625 92 C-53.42728303 90.06701334 -55.23584975 88.13986561 -57.05078125 86.21875 C-61.44185737 81.54397283 -65.75010734 76.80329477 -70 72 C-68.71403737 69.17615633 -67.37292429 67.12431572 -65.177948 64.93743896 C-64.60303619 64.35977783 -64.02812439 63.7821167 -63.43579102 63.18695068 C-62.49280151 62.25474701 -62.49280151 62.25474701 -61.53076172 61.30371094 C-60.53545944 60.30797058 -60.53545944 60.30797058 -59.52005005 59.29211426 C-57.3279703 57.10142667 -55.12889375 54.91790636 -52.9296875 52.734375 C-51.40753361 51.21595163 -49.88582098 49.69708579 -48.36453247 48.17779541 C-44.36090745 44.1818037 -40.35131241 40.19185471 -36.3404541 36.203125 C-32.24809371 32.13122945 -28.16139471 28.05366074 -24.07421875 23.9765625 C-16.05501695 15.97880529 -8.02949819 7.98741897 0 0 Z " fill="#010101" transform="translate(249,121)"/>
<path d="M0 0 C0.75459671 2.19946671 0.75459671 2.19946671 1 5 C-0.60210037 7.34597397 -0.60210037 7.34597397 -3.07354736 9.80853271 C-3.52385055 10.26537359 -3.97415374 10.72221446 -4.43810248 11.19289899 C-5.95423182 12.72362196 -7.49088851 14.23190723 -9.02832031 15.74121094 C-10.11816344 16.83263539 -11.20670034 17.92536551 -12.29402161 19.01930237 C-15.25381131 21.98937519 -18.23195401 24.94040284 -21.21394062 27.88816738 C-24.32834499 30.97253883 -27.4265731 34.07307683 -30.52679443 37.17169189 C-35.73591226 42.37342046 -40.95618052 47.56373519 -46.18408203 52.74658203 C-52.89837913 59.40313263 -59.59404654 66.07810069 -66.28398514 72.75912094 C-72.03002867 78.49720805 -77.78457335 84.2267477 -83.54048824 89.95493031 C-85.39299355 91.79923306 -87.24432124 93.64471179 -89.09549713 95.49034882 C-92.00271522 98.38778706 -94.9151771 101.27985259 -97.83182335 104.167799 C-98.90301836 105.22994124 -99.97253175 106.29378246 -101.04025459 107.35941505 C-102.49510467 108.81077832 -103.95592619 110.25584669 -105.41851807 111.69940186 C-106.23560368 112.51053814 -107.05268929 113.32167442 -107.89453506 114.15739059 C-110 116 -110 116 -113 117 C-113.66 116.34 -114.32 115.68 -115 115 C-114.88521838 110.69568921 -111.5613199 108.03908355 -108.75 105.125 C-107.78508707 104.1080702 -106.82154014 103.0898425 -105.859375 102.0703125 C-105.38363037 101.56781982 -104.90788574 101.06532715 -104.41772461 100.54760742 C-102.98885542 98.98783442 -101.64020526 97.38300172 -100.30078125 95.74609375 C-98.05592297 93.06674677 -95.72483375 91.16589349 -93 89 C-91.64613064 87.34997172 -90.31321858 85.6825613 -89 84 C-86.6249275 81.50312891 -84.29462281 79.22663293 -81.5625 77.125 C-78.84133864 74.86842716 -76.73131032 72.43782796 -74.47265625 69.734375 C-71.77895162 66.56194832 -68.93338735 63.71232192 -65.625 61.1875 C-62.53277103 58.61064253 -60.10336568 55.71096317 -57.55078125 52.609375 C-57.03902344 52.07828125 -56.52726562 51.5471875 -56 51 C-55.34 51 -54.68 51 -54 51 C-53.74863281 50.41089844 -53.49726563 49.82179688 -53.23828125 49.21484375 C-51.84544599 46.72355798 -50.3791428 45.37699586 -48.1875 43.5625 C-45.71565552 41.48094675 -43.35288472 39.40344156 -41.125 37.0625 C-39 35 -39 35 -37 35 C-37 34.34 -37 33.68 -37 33 C-35.3203125 31.37890625 -35.3203125 31.37890625 -33.125 29.5625 C-30.53806278 27.41599116 -28.88815626 25.83223438 -27 23 C-26.34 23 -25.68 23 -25 23 C-24.773125 22.443125 -24.54625 21.88625 -24.3125 21.3125 C-23.0037189 19.00655234 -21.52570009 17.37459654 -19.6171875 15.55078125 C-17.55661647 13.57482304 -15.56594945 11.53380474 -13.5625 9.5 C-4.03078047 0 -4.03078047 0 0 0 Z " fill="#ECD9D1" transform="translate(366,277)"/>
<path d="M0 0 C0.84495639 0.37310901 0.84495639 0.37310901 1.70698261 0.75375557 C1.2248266 5.34698376 -0.37767736 7.34194509 -3.60034466 10.57574654 C-4.27730437 11.26312454 -4.27730437 11.26312454 -4.96794003 11.96438897 C-6.48007876 13.49479928 -8.00609666 15.01055085 -9.53251934 16.52670479 C-10.6205841 17.62182773 -11.70780321 18.71779142 -12.79423809 19.81453133 C-15.74566186 22.78846469 -18.70968613 25.74953065 -21.67681432 28.70778608 C-24.15104485 31.17691023 -26.61905411 33.65220535 -29.08708256 36.1275264 C-34.90671008 41.96415642 -40.73656076 47.79043235 -46.57304668 53.61020088 C-52.60053947 59.62075248 -58.61143998 65.64753428 -64.61430103 71.6826781 C-69.76536065 76.86039061 -74.92602458 82.02838578 -80.09467572 87.18853772 C-83.18323064 90.27215327 -86.26806625 93.35926997 -89.34391499 96.4555645 C-92.23429667 99.36423695 -95.13646767 102.26059648 -98.04831982 105.14776993 C-99.1169116 106.21133374 -100.18122868 107.27921171 -101.24098301 108.35158157 C-102.68403106 109.81044643 -104.14394155 111.25257499 -105.60473919 112.69366646 C-106.41830537 113.50664633 -107.23187155 114.3196262 -108.07009125 115.15724182 C-110.29301739 116.75375557 -110.29301739 116.75375557 -112.58603477 116.50751114 C-113.14933904 116.2587718 -113.7126433 116.01003246 -114.29301739 115.75375557 C-113.81086138 111.16052737 -112.20835741 109.16556604 -108.98569012 105.9317646 C-108.53438364 105.4735126 -108.08307717 105.0152606 -107.61809474 104.54312217 C-106.10595601 103.01271186 -104.57993811 101.49696029 -103.05351543 99.98080635 C-101.96545067 98.88568341 -100.87823157 97.78971972 -99.79179668 96.69297981 C-96.84037292 93.71904645 -93.87634864 90.75798049 -90.90922046 87.79972506 C-88.43498992 85.3306009 -85.96698066 82.85530579 -83.49895221 80.37998474 C-77.67932469 74.54335472 -71.84947401 68.71707878 -66.01298809 62.89731026 C-59.9854953 56.88675866 -53.97459479 50.85997686 -47.97173375 44.82483304 C-42.82067413 39.64712053 -37.66001019 34.47912536 -32.49135906 29.31897342 C-29.40280413 26.23535787 -26.31796853 23.14824117 -23.24211979 20.05194664 C-20.35173811 17.14327419 -17.44956711 14.24691466 -14.53771496 11.35974121 C-13.46912318 10.2961774 -12.4048061 9.22829943 -11.34505177 8.15592957 C-9.90200372 6.6970647 -8.44209322 5.25493614 -6.98129559 3.81384468 C-6.16772941 3.00086481 -5.35416323 2.18788494 -4.51594353 1.35026932 C-2.29301739 -0.24624443 -2.29301739 -0.24624443 0 0 Z " fill="#EAD4C8" transform="translate(248.29301738739014,99.24624443054199)"/>
<path d="M0 0 C20.36241619 -2.71253404 20.36241619 -2.71253404 27.85253906 1.66845703 C33.29325125 6.11016839 37.80993125 11.38159861 42 17 C41.60022949 17.46543213 41.20045898 17.93086426 40.78857422 18.41040039 C40.2576416 19.02906982 39.72670898 19.64773926 39.1796875 20.28515625 C38.65616699 20.89496338 38.13264648 21.50477051 37.59326172 22.13305664 C35.37185918 24.73603936 33.18437727 27.36589799 31 30 C26.72113402 28.34632885 23.8599365 25.13020426 20.703125 21.93359375 C20.10949158 21.33950211 19.51585815 20.74541046 18.90423584 20.13331604 C17.65464684 18.88071283 16.40748226 17.62568693 15.16259766 16.3684082 C13.24826588 14.43574928 11.32598142 12.51128287 9.40234375 10.58789062 C8.1896298 9.37026394 6.97737392 8.15218082 5.765625 6.93359375 C5.18758118 6.3544371 4.60953735 5.77528046 4.01397705 5.17857361 C0 1.11606324 0 1.11606324 0 0 Z " fill="#010101" transform="translate(306,262)"/>
<path d="M0 0 C3.83605489 1.58363082 6.28445649 4.02614122 9.203125 6.9375 C9.6857782 7.41823975 10.1684314 7.89897949 10.66571045 8.39428711 C11.67999064 9.40721093 12.69176804 10.42264638 13.70117188 11.44042969 C15.25171972 13.00173165 16.81270503 14.55202497 18.375 16.1015625 C19.36001734 17.08790061 20.34441453 18.0748585 21.328125 19.0625 C22.2243457 19.96097656 23.12056641 20.85945313 24.04394531 21.78515625 C26 24 26 24 26 26 C3.0919242 28.07288853 3.0919242 28.07288853 -3.3671875 23.46875 C-6.51709611 20.62086308 -8.96159017 17.72903409 -11 14 C-11.13993941 10.78747795 -9.86362065 9.84613612 -7.71484375 7.421875 C-6.34005859 6.09929687 -6.34005859 6.09929687 -4.9375 4.75 C-4.01839844 3.85796875 -3.09929687 2.9659375 -2.15234375 2.046875 C-1.44207031 1.37140625 -0.73179687 0.6959375 0 0 Z " fill="#010101" transform="translate(163,207)"/>
<path d="M0 0 C2.31 0 4.62 0 7 0 C8.98 4.62 10.96 9.24 13 14 C13.33 9.38 13.66 4.76 14 0 C19 0 19 0 20.58203125 1.53125 C21.19111328 2.50578125 21.19111328 2.50578125 21.8125 3.5 C22.23144531 4.1496875 22.65039062 4.799375 23.08203125 5.46875 C23.53642578 6.22671875 23.53642578 6.22671875 24 7 C25.74271938 4.702779 27.39911152 2.40133271 29 0 C30.65 0 32.3 0 34 0 C34 5.61 34 11.22 34 17 C32.35 17 30.7 17 29 17 C28.505 15.02 28.505 15.02 28 13 C27.34 13.99 26.68 14.98 26 16 C24.125 15.6875 24.125 15.6875 22 15 C21.34 14.01 20.68 13.02 20 12 C19.67 13.65 19.34 15.3 19 17 C15.04 17 11.08 17 7 17 C7 16.01 7 15.02 7 14 C4.69 14 2.38 14 0 14 C-0.33 14.99 -0.66 15.98 -1 17 C-2.98 17 -4.96 17 -7 17 C-4.69 11.39 -2.38 5.78 0 0 Z M3 7 C2.67 7.99 2.34 8.98 2 10 C2.99 9.67 3.98 9.34 5 9 C4.34 8.34 3.68 7.68 3 7 Z " fill="#020202" transform="translate(294,239)"/>
<path d="M0 0 C1.98 0 3.96 0 6 0 C6 1.98 6 3.96 6 6 C7.65 6 9.3 6 11 6 C11 4.02 11 2.04 11 0 C12.98 0 14.96 0 17 0 C17 5.61 17 11.22 17 17 C15.02 17 13.04 17 11 17 C11 15.02 11 13.04 11 11 C9.35 11 7.7 11 6 11 C6 12.98 6 14.96 6 17 C4.02 17 2.04 17 0 17 C0 11.39 0 5.78 0 0 Z " fill="#020202" transform="translate(187,239)"/>
<path d="M0 0 C1.1045658 3.3136974 1.33241884 5.52666346 1 9 C-0.56054688 11.24169922 -0.56054688 11.24169922 -2.71875 13.3046875 C-3.86923828 14.42617188 -3.86923828 14.42617188 -5.04296875 15.5703125 C-5.85378906 16.33085937 -6.66460937 17.09140625 -7.5 17.875 C-8.31082031 18.65875 -9.12164062 19.4425 -9.95703125 20.25 C-11.95853249 22.18086002 -13.97265624 24.09635212 -16 26 C-16.2165625 25.0409375 -16.2165625 25.0409375 -16.4375 24.0625 C-16.81007181 22.02454854 -16.81007181 22.02454854 -18 21 C-18.69867188 21.721875 -19.39734375 22.44375 -20.1171875 23.1875 C-21.02726562 24.115625 -21.93734375 25.04375 -22.875 26 C-23.77992188 26.928125 -24.68484375 27.85625 -25.6171875 28.8125 C-28 31 -28 31 -30 31 C-30.20625 31.556875 -30.4125 32.11375 -30.625 32.6875 C-32.55000774 35.92501302 -35.03850902 37.68231141 -38 40 C-38 39.01 -38 38.02 -38 37 C-36.59217805 35.79329547 -35.17605935 34.59459224 -33.71484375 33.453125 C-31.32944651 31.43178611 -29.4346519 29.09839955 -27.44140625 26.69921875 C-25.42823417 24.32596711 -23.22855706 22.16991082 -21 20 C-20.278125 19.236875 -19.55625 18.47375 -18.8125 17.6875 C-17 16 -17 16 -15 16 C-14.74863281 15.41089844 -14.49726563 14.82179688 -14.23828125 14.21484375 C-12.84544599 11.72355798 -11.3791428 10.37699586 -9.1875 8.5625 C-5.9595887 5.83435639 -2.94106875 3.03297715 0 0 Z " fill="#EBD9D1" transform="translate(327,312)"/>
<path d="M0 0 C1.65 0 3.3 0 5 0 C5.33 1.32 5.66 2.64 6 4 C6.515625 3.34 7.03125 2.68 7.5625 2 C10.79995755 -0.65637543 12.92552281 -0.31342132 17 0 C14.525 3.465 14.525 3.465 12 7 C13.04539719 9.25162472 14.11156417 11.14589161 15.625 13.125 C17 15 17 15 17 17 C10.6 17.49230769 10.6 17.49230769 7.5625 15 C7.046875 14.34 6.53125 13.68 6 13 C5.67 14.32 5.34 15.64 5 17 C3.35 17 1.7 17 0 17 C0 11.39 0 5.78 0 0 Z " fill="#050505" transform="translate(249,239)"/>
<path d="M0 0 C0.33 0.99 0.66 1.98 1 3 C0.67 3.66 0.34 4.32 0 5 C-2.31 4.67 -4.62 4.34 -7 4 C-7 4.66 -7 5.32 -7 6 C-6.071875 6.103125 -5.14375 6.20625 -4.1875 6.3125 C-1 7 -1 7 0.9375 8.1875 C2 10 2 10 1.9375 13.0625 C1 16 1 16 -0.625 17.375 C-4.73278394 18.45599577 -8.4763859 18.62507245 -12.4375 17 C-12.953125 16.67 -13.46875 16.34 -14 16 C-13.67 14.68 -13.34 13.36 -13 12 C-10.36 12 -7.72 12 -5 12 C-6.134375 11.525625 -7.26875 11.05125 -8.4375 10.5625 C-12 9 -12 9 -13 8 C-13.1875 5.0625 -13.1875 5.0625 -13 2 C-9.02291084 -1.97708916 -5.28744325 -0.91513441 0 0 Z " fill="#040404" transform="translate(184,239)"/>
<path d="M0 0 C0.33 1.32 0.66 2.64 1 4 C-2.05263664 4.98120464 -3.94736336 4.98120464 -7 4 C-7 4.66 -7 5.32 -7 6 C-6.071875 6.12375 -5.14375 6.2475 -4.1875 6.375 C-1 7 -1 7 2 9 C1.75 12.375 1.75 12.375 1 16 C-1.999057 18.14218357 -4.18179665 18.14973579 -7.75 17.625 C-8.54921875 17.51414062 -9.3484375 17.40328125 -10.171875 17.2890625 C-11.07679688 17.14597656 -11.07679688 17.14597656 -12 17 C-12.33 15.68 -12.66 14.36 -13 13 C-10.10765685 12.17361624 -8.11257569 12 -5 12 C-6.134375 11.525625 -7.26875 11.05125 -8.4375 10.5625 C-12 9 -12 9 -13 8 C-13.04080783 6.00041636 -13.04254356 3.99954746 -13 2 C-8.22169095 -0.91360308 -5.44893869 -1.19876651 0 0 Z " fill="#060606" transform="translate(286,239)"/>
<path d="M0 0 C1.98 0 3.96 0 6 0 C7.17133058 2.45620851 8.33721722 4.91474917 9.5 7.375 C9.83386719 8.07367188 10.16773438 8.77234375 10.51171875 9.4921875 C13 14.7734375 13 14.7734375 13 17 C11.02 17 9.04 17 7 17 C6.67 16.34 6.34 15.68 6 15 C4.02 15 2.04 15 0 15 C-0.33 15.66 -0.66 16.32 -1 17 C-2.98 17 -4.96 17 -7 17 C-5.1668733 11.00067626 -2.92678249 5.55079437 0 0 Z M2 7 C2 7.99 2 8.98 2 10 C2.66 10 3.32 10 4 10 C3.67 9.01 3.34 8.02 3 7 C2.67 7 2.34 7 2 7 Z " fill="#050505" transform="translate(235,239)"/>
<path d="M0 0 C2 1 2 1 2 1 Z M-1 1 C-0.67 1.66 -0.34 2.32 0 3 C0.66 3.33 1.32 3.66 2 4 C1.01 4 0.02 4 -1 4 C-0.92241455 4.73299316 -0.8448291 5.46598633 -0.76489258 6.22119141 C-1.21629602 11.55647073 -6.03217469 14.78449542 -9.6875 18.375 C-10.50412109 19.21933594 -11.32074219 20.06367188 -12.16210938 20.93359375 C-13.35610352 22.12275391 -13.35610352 22.12275391 -14.57421875 23.3359375 C-15.30213623 24.06345215 -16.03005371 24.7909668 -16.7800293 25.54052734 C-19 27 -19 27 -21.77661133 26.72900391 C-22.51032959 26.48843262 -23.24404785 26.24786133 -24 26 C-22.77564211 21.37464798 -20.35593607 19.35324896 -16.78515625 16.45703125 C-14.34635557 14.46650028 -12.19930115 12.25166546 -10 10 C-8.39718992 8.39447789 -6.79291845 6.7904139 -5.1875 5.1875 C-4.39730469 4.39730469 -3.60710937 3.60710937 -2.79296875 2.79296875 C-2.20128906 2.20128906 -1.60960937 1.60960937 -1 1 Z " fill="#E8D6CC" transform="translate(311,330)"/>
<path d="M0 0 C5.28 0 10.56 0 16 0 C16 1.32 16 2.64 16 4 C14.35 4 12.7 4 11 4 C11 8.29 11 12.58 11 17 C9.02 17 7.04 17 5 17 C5 12.71 5 8.42 5 4 C3.35 4 1.7 4 0 4 C0 2.68 0 1.36 0 0 Z " fill="#010101" transform="translate(205,239)"/>
<path d="M0 0 C1.98 0 3.96 0 6 0 C6 5.61 6 11.22 6 17 C4.02 17 2.04 17 0 17 C0 11.39 0 5.78 0 0 Z " fill="#010101" transform="translate(331,239)"/>
<path d="M0 0 C1.98 0 3.96 0 6 0 C6 5.61 6 11.22 6 17 C4.02 17 2.04 17 0 17 C0 11.39 0 5.78 0 0 Z " fill="#010101" transform="translate(163,239)"/>
<path d="M0 0 C0.66 0.66 1.32 1.32 2 2 C1.80044776 6.57435124 -0.16571163 8.65495814 -3.375 11.75 C-4.16648437 12.52859375 -4.95796875 13.3071875 -5.7734375 14.109375 C-8 16 -8 16 -11 17 C-11.66 16.34 -12.32 15.68 -13 15 C-12.5143589 10.37627993 -9.25291115 8.13724949 -5.9375 5.25 C-5.36966797 4.74339844 -4.80183594 4.23679687 -4.21679688 3.71484375 C-2.8180135 2.46886864 -1.40989267 1.23339027 0 0 Z " fill="#EAD5CB" transform="translate(264,377)"/>
<path d="M0 0 C1.65 0 3.3 0 5 0 C5 5.61 5 11.22 5 17 C3.35 17 1.7 17 0 17 C0 11.39 0 5.78 0 0 Z " fill="#020202" transform="translate(222,239)"/>
<path d="M0 0 C-1.612328 4.03082 -4.46234596 6.75944137 -7.5 9.75 C-7.99886719 10.25660156 -8.49773437 10.76320313 -9.01171875 11.28515625 C-12.74658861 15 -12.74658861 15 -15 15 C-15.20625 15.556875 -15.4125 16.11375 -15.625 16.6875 C-17.55000774 19.92501302 -20.03850902 21.68231141 -23 24 C-23 23.01 -23 22.02 -23 21 C-21.59217805 19.79329547 -20.17605935 18.59459224 -18.71484375 17.453125 C-16.32944651 15.43178611 -14.4346519 13.09839955 -12.44140625 10.69921875 C-10.42823417 8.32596711 -8.22855706 6.16991082 -6 4 C-5.278125 3.236875 -4.55625 2.47375 -3.8125 1.6875 C-2 0 -2 0 0 0 Z " fill="#FCF1ED" transform="translate(312,328)"/>
<path d="M0 0 C0.66 0.66 1.32 1.32 2 2 C1.34 2 0.68 2 0 2 C-0.2475 2.556875 -0.495 3.11375 -0.75 3.6875 C-3.33765089 8.47465415 -6.8444645 11.93425438 -11.0625 15.3125 C-11.91972656 16.00988281 -12.77695313 16.70726562 -13.66015625 17.42578125 C-16 19 -16 19 -19 19 C-12.73 12.73 -6.46 6.46 0 0 Z " fill="#EFDACA" transform="translate(172,173)"/>
<path d="M0 0 C0.66 0.33 1.32 0.66 2 1 C1.82374165 3.37948772 1.30280227 4.70225849 -0.40234375 6.37890625 C-1.90649092 7.62115486 -3.45129851 8.81376056 -5 10 C-5.99 9.01 -6.98 8.02 -8 7 C-3.375 1.125 -3.375 1.125 0 0 Z " fill="#E8D6CE" transform="translate(282,361)"/>
<path d="M0 0 C-0.375 1.9375 -0.375 1.9375 -1 4 C-1.99 4.495 -1.99 4.495 -3 5 C-3.33 4.34 -3.66 3.68 -4 3 C-4.99 2.67 -5.98 2.34 -7 2 C-5.26578631 -1.46842738 -3.40984787 -1.13661596 0 0 Z M-8 3 C-7.67 4.32 -7.34 5.64 -7 7 C-7.99 7 -8.98 7 -10 7 C-9.34 5.68 -8.68 4.36 -8 3 Z " fill="#E8D2C8" transform="translate(358,288)"/>
<path d="M0 0 C2.125 0.375 2.125 0.375 4 1 C4 1.66 4 2.32 4 3 C2.68 3 1.36 3 0 3 C0 3.66 0 4.32 0 5 C0.66 5.33 1.32 5.66 2 6 C0.68 6.33 -0.64 6.66 -2 7 C-2.125 4.625 -2.125 4.625 -2 2 C-1.34 1.34 -0.68 0.68 0 0 Z " fill="#EAD1BF" transform="translate(229,116)"/>
<path d="M0 0 C0.33 0.99 0.66 1.98 1 3 C-1.97 5.31 -4.94 7.62 -8 10 C-8 7 -8 7 -6.25 5.17578125 C-5.5075 4.56089844 -4.765 3.94601562 -4 3.3125 C-3.2575 2.68988281 -2.515 2.06726563 -1.75 1.42578125 C-1.1725 0.95527344 -0.595 0.48476563 0 0 Z " fill="#FBEFE9" transform="translate(321,318)"/>
<path d="M0 0 C0 3 0 3 -1.3125 4.38671875 C-2.875 5.59114583 -4.4375 6.79557292 -6 8 C-6 5 -6 5 -4.6875 3.61328125 C-3.125 2.40885417 -1.5625 1.20442708 0 0 Z " fill="#FBF1EB" transform="translate(287,352)"/>
<path d="M0 0 C0 3 0 3 -2.5 5.6875 C-3.325 6.450625 -4.15 7.21375 -5 8 C-5.66 7.67 -6.32 7.34 -7 7 C-2.25 1.125 -2.25 1.125 0 0 Z " fill="#FDF1ED" transform="translate(279,360)"/>
<path d="M0 0 C0.598125 0.20625 1.19625 0.4125 1.8125 0.625 C-0.36174117 3.12537734 -1.91795798 4.06128586 -5.1875 4.625 C-5.1875 3.635 -5.1875 2.645 -5.1875 1.625 C-2.1875 -0.375 -2.1875 -0.375 0 0 Z " fill="#E5CFC4" transform="translate(323.1875,321.375)"/>
<path d="M0 0 C0.66 0.99 1.32 1.98 2 3 C1.34 4.32 0.68 5.64 0 7 C-0.66 7 -1.32 7 -2 7 C-1.814375 6.38125 -1.62875 5.7625 -1.4375 5.125 C-0.76313824 2.95839822 -0.76313824 2.95839822 -2 1 C-1.34 0.67 -0.68 0.34 0 0 Z " fill="#E7CDC2" transform="translate(139,208)"/>
<path d="M0 0 C0.66 0 1.32 0 2 0 C0.60667426 3.36720387 -0.9789286 4.9859524 -4 7 C-4 5.68 -4 4.36 -4 3 C-3.01 3 -2.02 3 -1 3 C-0.67 2.01 -0.34 1.02 0 0 Z " fill="#EDE0D9" transform="translate(314,331)"/>
</svg>
