<?xml version="1.0" encoding="UTF-8"?>
<svg version="1.1" xmlns="http://www.w3.org/2000/svg" width="500" height="500">
<path d="M0 0 C8.42917252 -2.36935854 17.78567313 -3.70359009 26 0 C38.76658197 8.45650416 49.08508202 21.47568694 59 33 C60.12120157 32.0449028 61.24156401 31.08882049 62.36157227 30.13232422 C62.98556412 29.6000119 63.60955597 29.06769958 64.25245667 28.51925659 C66.23224136 26.79809702 68.10154154 24.998427 69.9375 23.125 C70.52402344 22.52945312 71.11054688 21.93390625 71.71484375 21.3203125 C72.13894531 20.88460938 72.56304687 20.44890625 73 20 C71.60861439 16.84876764 69.98645061 14.75917966 67.5234375 12.36328125 C66.853125 11.70392578 66.1828125 11.04457031 65.4921875 10.36523438 C64.79351562 9.68783203 64.09484375 9.01042969 63.375 8.3125 C61.98485511 6.95660138 60.59671464 5.59864356 59.2109375 4.23828125 C58.28740479 3.341698 58.28740479 3.341698 57.34521484 2.42700195 C56 1 56 1 56 0 C65.62478905 -1.67024539 76.39062846 -3.14208119 85.22180176 1.8046875 C92.31879639 7.20607585 98.27229345 13.75483376 104.18200684 20.39672852 C106.61377405 23.09860065 109.12462223 25.72490565 111.62890625 28.359375 C116.49721981 33.50331597 121.27578969 38.72309092 126 44 C124.71403737 46.82384367 123.37292429 48.87568428 121.177948 51.06256104 C120.60303619 51.64022217 120.02812439 52.2178833 119.43579102 52.81304932 C118.80713135 53.43451843 118.17847168 54.05598755 117.53076172 54.69628906 C116.86722687 55.36011597 116.20369202 56.02394287 115.52005005 56.70788574 C113.3279703 58.89857333 111.12889375 61.08209364 108.9296875 63.265625 C107.40753361 64.78404837 105.88582098 66.30291421 104.36453247 67.82220459 C100.36090745 71.8181963 96.35131241 75.80814529 92.3404541 79.796875 C88.24809371 83.86877055 84.16139471 87.94633926 80.07421875 92.0234375 C72.05501695 100.02119471 64.02949819 108.01258103 56 116 C51.1032076 111.89300732 46.49333764 107.62924728 41.99487305 103.0925293 C41.33382065 102.43001663 40.67276825 101.76750397 39.99168396 101.08491516 C38.56923251 99.6586829 37.14793653 98.23129744 35.72769737 96.80286217 C33.48164964 94.54397779 31.23242855 92.2882964 28.9823761 90.03340149 C24.21459755 85.25424075 19.45077652 80.47114725 14.6875 75.6875 C9.14932643 70.1257367 3.60954865 64.56559119 -1.93443871 59.00962257 C-4.15343234 56.78413308 -6.36940174 54.55566159 -8.58528137 52.32707214 C-9.93732243 50.97140077 -11.28950284 49.61586836 -12.6418457 48.26049805 C-13.25950806 47.63766937 -13.87717041 47.0148407 -14.5135498 46.37313843 C-17.47151431 43.31208033 -17.47151431 43.31208033 -21 41 C-19.41332422 37.09714233 -16.86649519 34.66479018 -13.875 31.75 C-12.96492187 30.85796875 -12.05484375 29.9659375 -11.1171875 29.046875 C-10.41851562 28.37140625 -9.71984375 27.6959375 -9 27 C-4.46479694 30.79698509 -0.13986003 34.71711354 4.02709961 38.91357422 C4.58407532 39.4704039 5.14105103 40.02723358 5.71490479 40.60093689 C7.52976899 42.41649 9.34107911 44.23554394 11.15234375 46.0546875 C12.42007374 47.32428531 13.68802673 48.59366048 14.95619202 49.86282349 C18.27424776 53.18467574 21.58928789 56.50952133 24.90368652 59.83502197 C28.29398355 63.23559509 31.68715506 66.63329737 35.08007812 70.03125 C41.72285162 76.68471019 48.36243946 83.34133959 55 90 C60.63568661 85.31179066 65.83103966 80.30014592 70.99609375 75.1015625 C71.82963882 74.26660248 72.6631839 73.43164246 73.52198792 72.57138062 C76.16286524 69.92494152 78.80022896 67.27503241 81.4375 64.625 C83.23609649 62.82138357 85.03492227 61.01799575 86.83398438 59.21484375 C91.22531248 54.81253739 95.61376729 50.40738286 100 46 C99.0402279 44.87434093 98.0796177 43.74939642 97.11865234 42.62475586 C96.58380219 41.99822617 96.04895203 41.37169647 95.49789429 40.72618103 C93.93952782 38.93031155 92.32639025 37.22338095 90.625 35.5625 C89.75875 34.716875 88.8925 33.87125 88 33 C83.99482604 34.60373148 81.3228902 37.42113986 78.359375 40.4453125 C77.83232971 40.97518768 77.30528442 41.50506287 76.76226807 42.05099487 C75.08674325 43.73767825 73.41832278 45.43119564 71.75 47.125 C70.61244149 48.27259388 69.47442564 49.41973461 68.3359375 50.56640625 C65.55196535 53.37238137 62.7743424 56.18450464 60 59 C55.66065272 57.38803791 53.05186675 54.02835311 50.046875 50.67578125 C40.76529529 40.53120998 30.99385643 30.88489868 21.25 21.1875 C19.40340966 19.34593991 17.55705402 17.50414445 15.7109375 15.66210938 C11.69772547 11.65862083 7.68232434 7.65734397 3.66485596 3.65812683 C2.44188928 2.44010322 1.22049765 1.22049765 0 0 Z " fill="#FEFEFE" transform="translate(194,262)"/>
<path d="M0 0 C2.90989758 1.31772008 4.99438609 2.73988314 7.2591095 4.98495483 C7.88028656 5.59615677 8.50146362 6.2073587 9.14146423 6.83708191 C9.81125809 7.50621109 10.48105194 8.17534027 11.17114258 8.86474609 C12.24244415 9.92356239 12.24244415 9.92356239 13.33538818 11.00376892 C15.6939172 13.33820498 18.04471851 15.6802299 20.39453125 18.0234375 C22.02781006 19.64775292 23.66116785 21.27198892 25.29460144 22.89614868 C28.7153542 26.30041323 32.13168944 29.70904623 35.5456543 33.12011719 C39.9302179 37.49928233 44.33072467 41.86204658 48.73532581 46.22104454 C52.11251074 49.56856234 55.47846112 52.92720278 58.84134483 56.28908157 C60.45966014 57.90317779 62.08211638 59.51313292 63.70868874 61.11890793 C65.97633519 63.35984309 68.2278027 65.61587319 70.47583008 67.87646484 C71.15574509 68.54154556 71.8356601 69.20662628 72.53617859 69.89186096 C73.14325653 70.50870255 73.75033447 71.12554413 74.37580872 71.76107788 C74.90986234 72.29312017 75.44391596 72.82516247 75.99415302 73.37332726 C77 75 77 75 76.80683422 77.04129982 C75.54132333 80.11350021 73.31251505 81.96517539 70.9375 84.25 C69.55884766 85.58804688 69.55884766 85.58804688 68.15234375 86.953125 C67.44207031 87.62859375 66.73179687 88.3040625 66 89 C61.46479694 85.20301491 57.13986003 81.28288646 52.97290039 77.08642578 C52.41592468 76.5295961 51.85894897 75.97276642 51.28509521 75.39906311 C49.47023101 73.58351 47.65892089 71.76445606 45.84765625 69.9453125 C44.57992626 68.67571469 43.31197327 67.40633952 42.04380798 66.13717651 C38.72575224 62.81532426 35.41071211 59.49047867 32.09631348 56.16497803 C28.70601645 52.76440491 25.31284494 49.36670263 21.91992188 45.96875 C15.27714838 39.31528981 8.63756054 32.65866041 2 26 C-3.63568661 30.68820934 -8.83103966 35.69985408 -13.99609375 40.8984375 C-15.24641136 42.15087753 -15.24641136 42.15087753 -16.52198792 43.42861938 C-19.16286524 46.07505848 -21.80022896 48.72496759 -24.4375 51.375 C-26.23609649 53.17861643 -28.03492227 54.98200425 -29.83398438 56.78515625 C-34.22531248 61.18746261 -38.61376729 65.59261714 -43 70 C-41.30413874 73.63303084 -39.26199512 75.94549046 -36.375 78.75 C-35.55773437 79.54921875 -34.74046875 80.3484375 -33.8984375 81.171875 C-33.27195313 81.77515625 -32.64546875 82.3784375 -32 83 C-28.95820046 81.64559786 -26.91760545 80.13915462 -24.6171875 77.7421875 C-23.70259766 76.80439453 -23.70259766 76.80439453 -22.76953125 75.84765625 C-22.14433594 75.19667969 -21.51914063 74.54570312 -20.875 73.875 C-19.62706198 72.57622947 -18.3746757 71.28171362 -17.1171875 69.9921875 C-16.56659668 69.41839355 -16.01600586 68.84459961 -15.44873047 68.25341797 C-14 67 -14 67 -12 67 C-12 66.34 -12 65.68 -12 65 C-11.34 65 -10.68 65 -10 65 C-9.79375 64.4225 -9.5875 63.845 -9.375 63.25 C-7.50939378 60.19718982 -4.9832233 58.90350441 -2 57 C4.91619416 63.86993374 11.82703728 70.74520018 18.7310257 77.62740135 C21.93670163 80.82262259 25.14421869 84.01594977 28.35595703 87.20507812 C31.45311347 90.28056622 34.54541454 93.36085863 37.63435364 96.44459915 C38.81601423 97.62255316 39.99943888 98.79874021 41.18461609 99.97315598 C42.83931617 101.61342101 44.48773516 103.25975387 46.13476562 104.90771484 C46.63035477 105.39611343 47.12594391 105.88451202 47.6365509 106.38771057 C51 109.77189568 51 109.77189568 51 112 C42.92317017 114.13262701 34.94872024 114.92781852 27 112 C15.72093935 104.65381338 6.6873607 93.13773341 -2 83 C-3.11674511 83.95042087 -4.23252489 84.90197608 -5.34790039 85.85400391 C-5.9693544 86.38377838 -6.59080841 86.91355286 -7.23109436 87.4593811 C-9.39444368 89.34353861 -11.42699013 91.32921803 -13.4375 93.375 C-14.11683594 94.06335938 -14.79617187 94.75171875 -15.49609375 95.4609375 C-15.99238281 95.96882813 -16.48867187 96.47671875 -17 97 C-13.28999456 101.43390894 -9.48007094 105.60148996 -5.3203125 109.6171875 C-4 111 -4 111 -4 112 C-13.06640506 113.3773975 -23.52338692 114.91663364 -31.89978027 110.45568848 C-38.55111998 105.52199743 -43.92860955 99.31692906 -49.375 93.125 C-51.06023628 91.30546385 -52.75161937 89.49160079 -54.44921875 87.68359375 C-58.1468241 83.73415303 -61.78103535 79.73607111 -65.36483765 75.68313599 C-67.09331144 73.7859302 -67.09331144 73.7859302 -70 72 C-70 71.34 -70 70.68 -70 70 C-68.69178772 68.71055603 -68.69178772 68.71055603 -66.78540039 67.15209961 C-60.6796414 61.95465746 -55.09334538 56.23742989 -49.43359375 50.56640625 C-48.228829 49.36231673 -47.02391598 48.15837556 -45.81886292 46.95457458 C-43.30510542 44.44228375 -40.79314563 41.9282131 -38.2824707 39.4128418 C-35.08300058 36.20767504 -31.87906082 33.00701984 -28.67375088 29.80769444 C-26.18820855 27.3257857 -23.70507758 24.84147536 -21.2226429 22.35645866 C-20.04296062 21.17611485 -18.86255046 19.996498 -17.68136406 18.81765938 C-11.5777306 12.72350091 -5.53882616 6.62256831 0 0 Z " fill="#FEFEFE" transform="translate(249,121)"/>
<path d="M0 0 C1.32 0.66 2.64 1.32 4 2 C2.47348163 5.60337113 0.34167929 7.90511269 -2.41653442 10.65704346 C-3.3448407 11.58809906 -4.27314697 12.51915466 -5.22958374 13.47842407 C-6.26119913 14.50296167 -7.29291011 15.52740303 -8.32470703 16.55175781 C-9.40916169 17.63564824 -10.49317596 18.71997943 -11.57678223 19.80471802 C-14.51838923 22.74689906 -17.4661238 25.68287105 -20.41498804 28.61777592 C-23.4962038 31.68649279 -26.5717602 34.76087088 -29.6479187 37.83465576 C-35.47332145 43.65384127 -41.30380388 49.46790956 -47.13612354 55.28016162 C-53.77601879 61.89770548 -60.4102388 68.52092636 -67.04398561 75.14463282 C-80.68968027 88.76941996 -94.34249408 102.38705302 -108 116 C-109.32 115.34 -110.64 114.68 -112 114 C-110.47348163 110.39662887 -108.34167929 108.09488731 -105.58346558 105.34295654 C-104.6551593 104.41190094 -103.72685303 103.48084534 -102.77041626 102.52157593 C-101.73880087 101.49703833 -100.70708989 100.47259697 -99.67529297 99.44824219 C-98.59083831 98.36435176 -97.50682404 97.28002057 -96.42321777 96.19528198 C-93.48161077 93.25310094 -90.5338762 90.31712895 -87.58501196 87.38222408 C-84.5037962 84.31350721 -81.4282398 81.23912912 -78.3520813 78.16534424 C-72.52667855 72.34615873 -66.69619612 66.53209044 -60.86387646 60.71983838 C-54.22398121 54.10229452 -47.5897612 47.47907364 -40.95601439 40.85536718 C-27.31031973 27.23058004 -13.65750592 13.61294698 0 0 Z " fill="#FEFEFE" transform="translate(363,277)"/>
<path d="M0 0 C0.99 0.66 1.98 1.32 3 2 C1.46901121 5.62077274 -0.68414029 7.93090295 -3.45449829 10.69500732 C-3.90948145 11.15169934 -4.36446461 11.60839135 -4.83323514 12.07892251 C-6.35628073 13.60525765 -7.88635545 15.12434275 -9.41650391 16.64355469 C-10.51081065 17.7372972 -11.60467702 18.83148048 -12.69813538 19.92607117 C-15.66660087 22.89511071 -18.64119449 25.85794139 -21.61691713 28.81970501 C-24.72615993 31.91644932 -27.82974374 35.01885445 -30.93392944 38.1206665 C-36.81245611 43.99297582 -42.69606267 49.86016807 -48.58150613 55.72554421 C-55.28185957 62.40354662 -61.97653808 69.08722572 -68.67074323 75.77139044 C-82.44085205 89.52059148 -96.21808016 103.26263862 -110 117 C-110.99 116.34 -111.98 115.68 -113 115 C-111.46901121 111.37922726 -109.31585971 109.06909705 -106.54550171 106.30499268 C-105.86302697 105.61995466 -105.86302697 105.61995466 -105.16676486 104.92107749 C-103.64371927 103.39474235 -102.11364455 101.87565725 -100.58349609 100.35644531 C-99.48918935 99.2627028 -98.39532298 98.16851952 -97.30186462 97.07392883 C-94.33339913 94.10488929 -91.35880551 91.14205861 -88.38308287 88.18029499 C-85.27384007 85.08355068 -82.17025626 81.98114555 -79.06607056 78.8793335 C-73.18754389 73.00702418 -67.30393733 67.13983193 -61.41849387 61.27445579 C-54.71814043 54.59645338 -48.02346192 47.91277428 -41.32925677 41.22860956 C-27.55914795 27.47940852 -13.78191984 13.73736138 0 0 Z " fill="#FDFDFD" transform="translate(247,99)"/>
<path d="M0 0 C20.36241619 -2.71253404 20.36241619 -2.71253404 27.85253906 1.66845703 C33.29325125 6.11016839 37.80993125 11.38159861 42 17 C41.15356901 18.04796218 40.29723808 19.08792692 39.4375 20.125 C38.72400391 20.99511719 38.72400391 20.99511719 37.99609375 21.8828125 C35.20864721 24.83936049 32.11768819 27.39985777 29 30 C24.86679156 25.89143009 20.73681698 21.77964754 16.60986328 17.66479492 C15.20418265 16.26415665 13.79760769 14.86441535 12.39013672 13.46557617 C10.37233904 11.45984836 8.35773369 9.4509628 6.34375 7.44140625 C5.7094104 6.81222794 5.0750708 6.18304962 4.42150879 5.5348053 C2.92857324 4.04206397 1.46135357 2.52367285 0 1 C0 0.67 0 0.34 0 0 Z " fill="#FEFEFE" transform="translate(306,262)"/>
<path d="M0 0 C0.66 0 1.32 0 2 0 C3.41235352 1.43579102 3.41235352 1.43579102 5.06640625 3.44140625 C9.11260658 8.20096313 13.48467338 12.56098575 17.9375 16.9375 C19.46968728 18.44434093 20.99976519 19.95333087 22.52734375 21.46484375 C23.19499756 22.120896 23.86265137 22.77694824 24.55053711 23.45288086 C26 25 26 25 26 26 C22.16746871 26.20505665 18.33636234 26.32820828 14.5 26.4375 C13.42234375 26.49615234 12.3446875 26.55480469 11.234375 26.61523438 C5.47369442 26.73817573 1.85440284 26.53056261 -2.59375 22.65625 C-3.75509994 21.46218598 -4.89295751 20.24458005 -6 19 C-6.99574309 18.01650467 -7.9951924 17.03673254 -9 16.0625 C-9.66 15.381875 -10.32 14.70125 -11 14 C-9.53417985 10.57719483 -7.61937745 8.43519517 -4.9375 5.875 C-2.08428067 3.22095 -2.08428067 3.22095 0 0 Z " fill="#FEFEFE" transform="translate(163,207)"/>
<path d="M0 0 C1.65 0 3.3 0 5 0 C6.58203125 1.75 6.58203125 1.75 7.8125 4 C8.23144531 4.7425 8.65039062 5.485 9.08203125 6.25 C9.38496094 6.8275 9.68789063 7.405 10 8 C10.30292969 7.4225 10.60585938 6.845 10.91796875 6.25 C11.33691406 5.5075 11.75585938 4.765 12.1875 4 C12.59355469 3.2575 12.99960937 2.515 13.41796875 1.75 C13.94003906 1.1725 14.46210938 0.595 15 0 C16.65 0 18.3 0 20 0 C20 5.61 20 11.22 20 17 C18.35 17 16.7 17 15 17 C14.67 15.35 14.34 13.7 14 12 C13.34 13.32 12.68 14.64 12 16 C10.125 15.6875 10.125 15.6875 8 15 C7.34 14.01 6.68 13.02 6 12 C5.67 13.65 5.34 15.3 5 17 C3.35 17 1.7 17 0 17 C0 11.39 0 5.78 0 0 Z " fill="#FDFDFD" transform="translate(308,239)"/>
<path d="M0 0 C1.98 0 3.96 0 6 0 C6 1.98 6 3.96 6 6 C7.65 6 9.3 6 11 6 C11 4.02 11 2.04 11 0 C12.98 0 14.96 0 17 0 C17 5.61 17 11.22 17 17 C15.02 17 13.04 17 11 17 C11 15.02 11 13.04 11 11 C9.35 11 7.7 11 6 11 C6 12.98 6 14.96 6 17 C4.02 17 2.04 17 0 17 C0 11.39 0 5.78 0 0 Z " fill="#FDFDFD" transform="translate(187,239)"/>
<path d="M0 0 C-0.33 1.32 -0.66 2.64 -1 4 C-3.64 3.67 -6.28 3.34 -9 3 C-9 3.66 -9 4.32 -9 5 C-7.906875 5.103125 -6.81375 5.20625 -5.6875 5.3125 C-2 6 -2 6 0 7.25 C1 9 1 9 0.9375 11.5 C-0.20931228 14.55816608 -1.20651108 15.35762117 -4 17 C-6.54296875 17.14453125 -6.54296875 17.14453125 -9.1875 16.8125 C-10.50814453 16.66748047 -10.50814453 16.66748047 -11.85546875 16.51953125 C-12.56316406 16.34808594 -13.27085937 16.17664063 -14 16 C-14.33 15.34 -14.66 14.68 -15 14 C-14.34 13.01 -13.68 12.02 -13 11 C-9.375 10.8125 -9.375 10.8125 -6 11 C-7.134375 10.525625 -8.26875 10.05125 -9.4375 9.5625 C-13 8 -13 8 -14 7 C-14.04080783 5.00041636 -14.04254356 2.99954746 -14 1 C-8.38372217 -1.98006579 -5.93642189 -2.30187787 0 0 Z " fill="#FDFDFD" transform="translate(185,240)"/>
<path d="M0 0 C-0.33 1.32 -0.66 2.64 -1 4 C-3.31 3.67 -5.62 3.34 -8 3 C-8 3.66 -8 4.32 -8 5 C-7.071875 5.103125 -6.14375 5.20625 -5.1875 5.3125 C-2 6 -2 6 -0.0625 7.25 C1 9 1 9 0.9375 11.5 C0 14 0 14 -1.5 15.875 C-5.36343673 17.61354653 -8.91842725 16.72386867 -13 16 C-13.33 14.68 -13.66 13.36 -14 12 C-10.67465243 10.89155081 -8.37817425 11.15545644 -5 12 C-5 11.34 -5 10.68 -5 10 C-6.11375 9.87625 -7.2275 9.7525 -8.375 9.625 C-12 9 -12 9 -14 7 C-14.36644691 4.14171413 -14.44818574 2.62746004 -12.75 0.25 C-8.26182475 -2.95583947 -5.06649971 -1.65635568 0 0 Z " fill="#FEFEFE" transform="translate(287,240)"/>
<path d="M0 0 C1.65 0 3.3 0 5 0 C5.33 1.65 5.66 3.3 6 5 C6.70125 4.175 7.4025 3.35 8.125 2.5 C11 0 11 0 14.3125 -0.3125 C15.199375 -0.209375 16.08625 -0.10625 17 0 C14.03 3.96 14.03 3.96 11 8 C11.99 9.299375 12.98 10.59875 14 11.9375 C17 15.875 17 15.875 17 17 C13.06225823 17.36630156 11.43460229 17.30233203 8.125 15 C7.42375 14.34 6.7225 13.68 6 13 C5.67 14.32 5.34 15.64 5 17 C3.35 17 1.7 17 0 17 C0 11.39 0 5.78 0 0 Z " fill="#FDFDFD" transform="translate(249,239)"/>
<path d="M0 0 C1.98 0 3.96 0 6 0 C7.17133058 2.45620851 8.33721722 4.91474917 9.5 7.375 C9.83386719 8.07367188 10.16773438 8.77234375 10.51171875 9.4921875 C13 14.7734375 13 14.7734375 13 17 C11.02 17 9.04 17 7 17 C6.67 16.34 6.34 15.68 6 15 C3.67843403 14.59270772 1.3431213 14.25561323 -1 14 C-1 14.99 -1 15.98 -1 17 C-2.98 17 -4.96 17 -7 17 C-5.1668733 11.00067626 -2.92678249 5.55079437 0 0 Z M2 7 C1.67 7.99 1.34 8.98 1 10 C1.99 10 2.98 10 4 10 C3.67 9.01 3.34 8.02 3 7 C2.67 7 2.34 7 2 7 Z " fill="#FDFDFD" transform="translate(235,239)"/>
<path d="M0 0 C1.98 0 3.96 0 6 0 C7.17407021 2.26727333 8.33939739 4.53834624 9.5 6.8125 C9.83386719 7.45509766 10.16773438 8.09769531 10.51171875 8.75976562 C12.00239084 11.69547699 13 13.66126517 13 17 C11.35 17 9.7 17 8 17 C7.67 16.01 7.34 15.02 7 14 C4.69 14 2.38 14 0 14 C-0.33 14.99 -0.66 15.98 -1 17 C-2.98 17 -4.96 17 -7 17 C-4.69 11.39 -2.38 5.78 0 0 Z M3 6 C2.67 7.32 2.34 8.64 2 10 C2.99 9.67 3.98 9.34 5 9 C4.34 8.01 3.68 7.02 3 6 Z " fill="#FEFEFE" transform="translate(294,239)"/>
<path d="M0 0 C5.28 0 10.56 0 16 0 C16 1.32 16 2.64 16 4 C14.35 4 12.7 4 11 4 C11 8.29 11 12.58 11 17 C9.02 17 7.04 17 5 17 C5 12.71 5 8.42 5 4 C3.35 4 1.7 4 0 4 C0 2.68 0 1.36 0 0 Z " fill="#FEFEFE" transform="translate(205,239)"/>
<path d="M0 0 C1.98 0 3.96 0 6 0 C6 5.61 6 11.22 6 17 C4.02 17 2.04 17 0 17 C0 11.39 0 5.78 0 0 Z " fill="#FEFEFE" transform="translate(331,239)"/>
<path d="M0 0 C1.65 0 3.3 0 5 0 C5 5.61 5 11.22 5 17 C3.02 17 1.04 17 -1 17 C-1.02721176 15.10424749 -1.04649136 13.20838021 -1.0625 11.3125 C-1.07410156 10.25675781 -1.08570313 9.20101562 -1.09765625 8.11328125 C-1.00865425 5.27589738 -0.64939838 2.7561081 0 0 Z " fill="#FDFDFD" transform="translate(164,239)"/>
<path d="M0 0 C1.65 0 3.3 0 5 0 C5 5.61 5 11.22 5 17 C3.35 17 1.7 17 0 17 C0 11.39 0 5.78 0 0 Z " fill="#FDFDFD" transform="translate(222,239)"/>
</svg>
