<svg width="180" height="22" viewBox="0 0 180 22" fill="none" xmlns="http://www.w3.org/2000/svg">
<path fill-rule="evenodd" clip-rule="evenodd" d="M82.044 4.91582H68.1991V4.91894V12.3058H82.044C82.9922 12.3215 83.9041 11.9312 84.5624 11.2256C85.2448 10.5387 85.6253 9.59273 85.6041 8.60927C85.6223 7.6258 85.2448 6.67981 84.5593 5.99607C83.9041 5.28735 82.9922 4.89708 82.044 4.91582ZM88.0802 13.3861L88.0289 13.4517L88.0319 13.4485C87.3585 14.3477 86.501 15.0814 85.5226 15.6028L90.8764 21.7377H85.3173L80.7124 16.4614H68.1991V21.7377H64.1709V0.744686H82.044C84.0611 0.719709 85.9997 1.55331 87.4038 3.0488C88.8563 4.50994 89.6625 6.5237 89.6323 8.61863C89.6504 10.3452 89.1039 12.0248 88.0802 13.3861ZM139.196 8.32831L147.286 0.750963H153.53L141.225 12.2715L141.264 21.6222H137.197L137.164 12.259L124.892 0.750963H131.134L139.196 8.32831ZM173.55 9.16191H161.925C160.795 9.1744 159.871 8.23777 159.859 7.0701V7.03576C159.853 5.86809 160.765 4.91585 161.894 4.91273H177.376L180 0.747842H161.928C160.306 0.722865 158.745 1.38787 157.616 2.58988C156.453 3.75443 155.81 5.36543 155.831 7.03576C155.81 8.70921 156.453 10.3171 157.616 11.4816C158.748 12.6836 160.309 13.3518 161.931 13.3237H173.556C174.1 13.3112 174.625 13.5329 175 13.9419C175.797 14.7755 175.8 16.118 175 16.9547C174.625 17.3606 174.1 17.5853 173.553 17.5729H158.078L155.454 21.7377H173.553C176.908 21.7315 179.623 18.9154 179.623 15.4467C179.623 11.9781 176.908 9.16503 173.553 9.15567L173.55 9.16191ZM0.000823877 7.02951V10.0736L0.00685979 10.0704V21.744H4.03503V14.1292L17.1432 14.1011L19.7642 10.0767L4.03201 10.1922V7.02639C4.02597 6.65486 4.11958 6.28957 4.30075 5.97112C4.47589 5.64954 4.73256 5.38104 5.0466 5.19996C5.36366 5.00951 5.72601 4.9096 6.09441 4.91585H23.8014L27.2951 0.750962H6.09441C4.47589 0.725985 2.92079 1.38475 1.78542 2.57739C0.619846 3.74194 -0.0263527 5.35294 0.000823877 7.02951ZM119.626 15.7278C118.493 16.9423 116.92 17.6135 115.29 17.5792H105.283C103.652 17.6135 102.079 16.9423 100.946 15.7278C99.7717 14.557 99.1225 12.9335 99.1588 11.2476C99.1255 9.56162 99.7747 7.93813 100.949 6.76734C102.082 5.55284 103.652 4.88159 105.283 4.91905H115.29C116.92 4.88471 118.493 5.55596 119.623 6.76734C119.934 7.08579 120.212 7.43547 120.453 7.81012H124.892C124.681 7.17321 124.406 6.56128 124.077 5.98369C123.189 4.40079 121.915 3.08326 120.384 2.16224C120.296 2.10916 120.208 2.0592 120.118 2.00925C118.635 1.17565 116.974 0.74168 115.29 0.754168H105.283C103.595 0.744802 101.934 1.17565 100.454 2.01238L100.385 2.05161C100.319 2.08866 100.253 2.12616 100.188 2.16536C98.6575 3.08325 97.3832 4.40078 96.4924 5.98681C95.5896 7.58221 95.1185 9.4024 95.1276 11.2507C95.1185 13.1021 95.5896 14.9192 96.4924 16.5177C97.3802 18.1006 98.6545 19.4181 100.188 20.3329C100.738 20.6669 101.315 20.9448 101.916 21.1602C102.997 21.5505 104.138 21.7503 105.283 21.7441H115.29C116.434 21.7472 117.572 21.5505 118.653 21.1602C119.254 20.9417 119.834 20.6638 120.384 20.3329C121.915 19.415 123.189 18.1006 124.077 16.5177C124.36 16.0181 124.602 15.4936 124.798 14.9504H120.275C120.079 15.2271 119.86 15.4852 119.626 15.7278ZM52.4695 15.7277C53.321 14.8784 53.9008 13.7857 54.1363 12.5868L54.1393 12.5899H58.2098C58.0437 13.9762 57.6058 15.3124 56.9234 16.5175C56.0326 18.1005 54.7583 19.4149 53.2274 20.3328C52.6778 20.6637 52.1011 20.9416 51.5002 21.1601C51.3522 21.2132 51.2012 21.2632 51.0502 21.3131H51.0472C50.8962 21.3568 50.7453 21.4005 50.5913 21.4411L50.5907 21.4412C50.4339 21.4787 50.277 21.5161 50.1202 21.5473C49.9632 21.5785 49.8062 21.6066 49.6461 21.6316C49.1449 21.7065 48.6406 21.7439 48.1333 21.7439H44.0236V17.5791H48.1333C48.3477 17.5791 48.5591 17.5697 48.7614 17.551C48.852 17.5416 48.9426 17.5322 49.0301 17.5197C50.3406 17.3449 51.5545 16.7111 52.4695 15.7277ZM37.0513 17.4916C37.4076 17.551 37.767 17.5791 38.1263 17.5791V17.5728H42.5349V21.7377H38.1263C37.767 21.7408 37.4076 21.719 37.0513 21.6815C36.9064 21.6659 36.7644 21.6472 36.6225 21.6253C36.4625 21.6035 36.3055 21.5754 36.1484 21.5441C35.9914 21.5129 35.8344 21.4755 35.6775 21.438L35.6774 21.438C35.5264 21.3974 35.3724 21.3537 35.2214 21.31H35.2184L35.2178 21.3098C35.067 21.2599 34.9162 21.21 34.7685 21.157C34.1676 20.9416 33.5908 20.6637 33.0413 20.3296C31.0151 19.112 29.457 17.2138 28.6236 14.9471C28.3458 14.1853 28.1585 13.3954 28.0619 12.5868H32.1324C32.3679 13.7857 32.9477 14.8784 33.7992 15.7277C34.6688 16.6612 35.8102 17.2825 37.0513 17.4916ZM36.8611 0.828976C37.2808 0.7759 37.7035 0.750923 38.1263 0.750923L38.1293 0.747803H42.5379V4.91581H38.1293C37.77 4.91581 37.4106 4.94391 37.0543 5.00323C35.8133 5.21241 34.6719 5.83059 33.8022 6.76722C32.6729 7.88805 32.0297 9.43037 32.0146 11.0476H27.9834C28.0045 9.2649 28.4756 7.51964 29.3452 5.98045C30.236 4.39754 31.5103 3.08001 33.0413 2.16212C33.1288 2.10904 33.2194 2.05596 33.307 2.00913C34.1978 1.50335 35.161 1.14431 36.1605 0.941372C36.393 0.897662 36.6255 0.860197 36.8611 0.828976ZM56.9234 5.98045C57.2525 6.56116 57.5243 7.17309 57.7387 7.81H57.7357C58.0829 8.85278 58.2671 9.94552 58.2822 11.0476H54.251C54.2359 9.43037 53.5928 7.88805 52.4634 6.76722C51.5213 5.75254 50.2652 5.1125 48.9124 4.96264C48.6527 4.93454 48.393 4.91893 48.1303 4.91893H44.0206V0.750923H48.1303C48.556 0.750923 48.9818 0.7759 49.4046 0.828976C49.4985 0.840073 49.59 0.853635 49.6834 0.867472L49.7186 0.872685C49.7548 0.878925 49.7903 0.885166 49.8257 0.891407C49.8612 0.897656 49.8967 0.903905 49.933 0.910153C50.9929 1.10372 52.0165 1.47213 52.9617 2.00913C53.0522 2.05908 53.1398 2.10904 53.2274 2.16212C54.7614 3.08001 56.0356 4.39754 56.9234 5.98045Z" fill="#242D3F"/>
</svg>
